<svg width="164" height="151" viewBox="0 0 164 151" fill="none" xmlns="http://www.w3.org/2000/svg">
<path d="M19.7496 0C17.9174 0.00193456 16.1608 0.687055 14.8652 1.90505C13.5697 3.12305 12.8409 4.77446 12.8389 6.49696V144.238C12.8409 145.961 13.5697 147.612 14.8652 148.83C16.1608 150.048 17.9174 150.733 19.7496 150.735H83.8893C85.7215 150.733 87.478 150.048 88.7736 148.83C90.0691 147.612 90.7979 145.961 90.8 144.238V6.49696C90.798 4.77446 90.0692 3.12305 88.7737 1.90505C87.4781 0.687055 85.7215 0.00193456 83.8893 0H19.7496Z" fill="#6C63FF"/>
<path d="M86.5261 31.8721V20.8191C82.8738 20.0306 79.4356 18.5371 76.4296 16.4335C73.4236 14.3299 70.9153 11.662 69.0639 8.59894C68.1756 9.21811 67.0986 9.55134 65.9929 9.54912H56.6572C59.1483 15.3863 63.2119 20.5137 68.4487 24.4275C73.6855 28.3413 79.9154 30.9069 86.5261 31.8721Z" fill="white" fill-opacity="0.75"/>
<path d="M86.526 20.1857V9.56719C86.5263 8.79045 86.3637 8.02128 86.0477 7.30362C85.7316 6.58595 85.2682 5.93388 84.684 5.38464C84.0998 4.8354 83.4062 4.39977 82.6428 4.10263C81.8795 3.8055 81.0613 3.65268 80.2351 3.65292H71.1713V4.67823C71.1722 5.33585 71.0311 5.98679 70.7564 6.59157C70.4817 7.19636 70.0791 7.74238 69.5732 8.19653C71.3641 11.188 73.7952 13.7978 76.7131 15.8613C79.631 17.9248 82.9723 19.3971 86.526 20.1853V20.1857Z" fill="white" fill-opacity="0.75"/>
<path d="M42.926 9.54935H37.0884C35.7147 9.54897 34.3974 9.03562 33.4262 8.12221C32.455 7.2088 31.9095 5.97014 31.9097 4.67865V3.65335H23.4061C22.5799 3.6533 21.7618 3.80625 20.9985 4.10348C20.2352 4.4007 19.5417 4.83638 18.9575 5.38563C18.3733 5.93487 17.91 6.58692 17.5939 7.30454C17.2778 8.02217 17.1151 8.7913 17.1152 9.56803V141.172C17.1144 141.949 17.2765 142.718 17.5924 143.436C17.9083 144.154 18.3717 144.806 18.9561 145.355C19.5405 145.904 20.2344 146.339 20.998 146.635C21.7616 146.932 22.5799 147.084 23.4061 147.082H80.2357C80.4949 147.083 80.7538 147.068 81.011 147.038C82.5325 146.859 83.9325 146.165 84.948 145.085C85.9636 144.005 86.5249 142.614 86.5266 141.172V44.2915C65.8565 42.0407 48.634 28.1751 42.926 9.54935Z" fill="white" fill-opacity="0.75"/>
<path d="M42.926 9.54935H37.0884C35.7147 9.54897 34.3974 9.03562 33.4262 8.12221C32.455 7.2088 31.9095 5.97014 31.9097 4.67865V3.65335H23.4061C22.5799 3.6533 21.7618 3.80625 20.9985 4.10348C20.2352 4.4007 19.5417 4.83638 18.9575 5.38563C18.3733 5.93487 17.91 6.58692 17.5939 7.30454C17.2778 8.02217 17.1151 8.7913 17.1152 9.56803V141.172C17.1144 141.949 17.2765 142.718 17.5924 143.436C17.9083 144.154 18.3717 144.806 18.9561 145.355C19.5405 145.904 20.2344 146.339 20.998 146.635C21.7616 146.932 22.5799 147.084 23.4061 147.082H80.2357C80.4949 147.083 80.7538 147.068 81.011 147.038C82.5325 146.859 83.9325 146.165 84.948 145.085C85.9636 144.005 86.5249 142.614 86.5266 141.172V44.2915C65.8565 42.0407 48.634 28.1751 42.926 9.54935Z" fill="white" fill-opacity="0.75"/>
<path d="M55.9483 9.54935H43.6084C49.2881 27.83 66.215 41.4308 86.5257 43.6722V32.5015C79.7382 31.5259 73.342 28.8927 67.9761 24.8649C62.6103 20.8372 58.4628 15.5561 55.9481 9.54935H55.9483Z" fill="white" fill-opacity="0.75"/>
<path d="M82.1973 108.171H23.8884C23.6021 108.17 23.3277 108.063 23.1252 107.873C22.9228 107.683 22.8089 107.425 22.8086 107.155V93.5575C22.8089 93.2884 22.9228 93.0304 23.1252 92.8401C23.3277 92.6497 23.6021 92.5427 23.8884 92.5424H82.1973C82.4836 92.5427 82.758 92.6497 82.9604 92.8401C83.1629 93.0304 83.2767 93.2884 83.2771 93.5575V107.156C83.2767 107.425 83.1628 107.683 82.9604 107.873C82.7579 108.063 82.4835 108.17 82.1973 108.171ZM23.8884 92.9482C23.7166 92.9482 23.5518 93.0124 23.4303 93.1266C23.3088 93.2408 23.2405 93.3958 23.2405 93.5573V107.155C23.2405 107.317 23.3088 107.472 23.4303 107.586C23.5518 107.7 23.7166 107.765 23.8884 107.765H82.1973C82.3691 107.765 82.5339 107.7 82.6554 107.586C82.7769 107.472 82.8452 107.317 82.8452 107.155V93.5575C82.8452 93.396 82.7769 93.241 82.6554 93.1268C82.5339 93.0126 82.3691 92.9484 82.1973 92.9484L23.8884 92.9482Z" fill="#6C63FF"/>
<path d="M31.4463 104.62C33.951 104.62 35.9814 102.711 35.9814 100.356C35.9814 98.0016 33.951 96.0927 31.4463 96.0927C28.9416 96.0927 26.9111 98.0016 26.9111 100.356C26.9111 102.711 28.9416 104.62 31.4463 104.62Z" fill="#3F3D56"/>
<path d="M41.9199 97.514C41.7195 97.514 41.5272 97.5888 41.3854 97.7221C41.2437 97.8554 41.1641 98.0361 41.1641 98.2246C41.1641 98.413 41.2437 98.5938 41.3854 98.7271C41.5272 98.8603 41.7195 98.9352 41.9199 98.9352H77.5531C77.7536 98.9352 77.9459 98.8603 78.0876 98.7271C78.2294 98.5938 78.309 98.413 78.309 98.2246C78.309 98.0361 78.2294 97.8554 78.0876 97.7221C77.9459 97.5888 77.7536 97.514 77.5531 97.514H41.9199Z" fill="#6C63FF"/>
<path d="M41.9199 101.778C41.7195 101.778 41.5272 101.852 41.3854 101.986C41.2437 102.119 41.1641 102.3 41.1641 102.488C41.1641 102.677 41.2437 102.857 41.3854 102.991C41.5272 103.124 41.7195 103.199 41.9199 103.199H77.5531C77.7536 103.199 77.9459 103.124 78.0876 102.991C78.2294 102.857 78.309 102.677 78.309 102.488C78.309 102.3 78.2294 102.119 78.0876 101.986C77.9459 101.852 77.7536 101.778 77.5531 101.778H41.9199Z" fill="#6C63FF"/>
<path d="M82.1973 130.91H23.8884C23.6021 130.91 23.3277 130.803 23.1252 130.612C22.9228 130.422 22.8089 130.164 22.8086 129.895V116.297C22.8089 116.028 22.9228 115.77 23.1252 115.579C23.3277 115.389 23.6021 115.282 23.8884 115.282H82.1973C82.4836 115.282 82.758 115.389 82.9604 115.579C83.1629 115.77 83.2767 116.028 83.2771 116.297V129.895C83.2767 130.164 83.1628 130.422 82.9604 130.612C82.7579 130.803 82.4835 130.91 82.1973 130.91ZM23.8884 115.688C23.7166 115.688 23.5518 115.752 23.4303 115.866C23.3088 115.98 23.2405 116.135 23.2405 116.297V129.895C23.2405 130.056 23.3088 130.211 23.4303 130.326C23.5518 130.44 23.7166 130.504 23.8884 130.504H82.1973C82.3691 130.504 82.5339 130.44 82.6554 130.326C82.7769 130.211 82.8452 130.056 82.8452 129.895V116.297C82.8452 116.135 82.7769 115.98 82.6554 115.866C82.5339 115.752 82.3691 115.688 82.1973 115.688L23.8884 115.688Z" fill="#6C63FF"/>
<path d="M31.4463 127.359C33.951 127.359 35.9814 125.451 35.9814 123.096C35.9814 120.741 33.951 118.832 31.4463 118.832C28.9416 118.832 26.9111 120.741 26.9111 123.096C26.9111 125.451 28.9416 127.359 31.4463 127.359Z" fill="#3F3D56"/>
<path d="M41.9199 120.253C41.7195 120.253 41.5272 120.328 41.3854 120.461C41.2437 120.595 41.1641 120.775 41.1641 120.964C41.1641 121.152 41.2437 121.333 41.3854 121.466C41.5272 121.6 41.7195 121.675 41.9199 121.675H77.5531C77.7536 121.675 77.9459 121.6 78.0876 121.466C78.2294 121.333 78.309 121.152 78.309 120.964C78.309 120.775 78.2294 120.595 78.0876 120.461C77.9459 120.328 77.7536 120.253 77.5531 120.253H41.9199Z" fill="#6C63FF"/>
<path d="M41.9199 124.517C41.7195 124.517 41.5272 124.592 41.3854 124.725C41.2437 124.858 41.1641 125.039 41.1641 125.228C41.1641 125.416 41.2437 125.597 41.3854 125.73C41.5272 125.863 41.7195 125.938 41.9199 125.938H77.5531C77.7536 125.938 77.9459 125.863 78.0876 125.73C78.2294 125.597 78.309 125.416 78.309 125.228C78.309 125.039 78.2294 124.858 78.0876 124.725C77.9459 124.592 77.7536 124.517 77.5531 124.517H41.9199Z" fill="#6C63FF"/>
<path d="M51.8149 79.9939C49.1204 79.9949 46.4521 79.4968 43.9624 78.5279C41.4728 77.5589 39.2106 76.1382 37.3053 74.347C35.4 72.5557 33.8888 70.429 32.8582 68.0884C31.8276 65.7478 31.2977 63.2392 31.2988 60.706C31.2988 60.6654 31.2988 60.6232 31.3014 60.5828C31.3643 50.0201 40.5661 41.4182 51.8149 41.4182C54.5091 41.4182 57.177 41.917 59.6661 42.8864C62.1552 43.8557 64.4169 45.2764 66.322 47.0674C68.2271 48.8585 69.7383 50.9848 70.7693 53.3249C71.8004 55.665 72.331 58.1731 72.331 60.706C72.331 63.2389 71.8004 65.747 70.7693 68.0872C69.7383 70.4273 68.2271 72.5535 66.322 74.3446C64.4169 76.1356 62.1552 77.5564 59.6661 78.5257C57.177 79.495 54.5091 79.9939 51.8149 79.9939ZM51.8149 41.8242C46.5124 41.8353 41.4287 43.8131 37.6685 47.3279C33.9082 50.8428 31.7752 55.6106 31.7329 60.5956C31.7305 60.6386 31.7307 60.6733 31.7307 60.706C31.7302 64.4412 32.9079 68.0926 35.1149 71.1985C37.3219 74.3043 40.459 76.7251 44.1294 78.1547C47.7999 79.5844 51.8389 79.9585 55.7356 79.23C59.6323 78.5014 63.2117 76.7028 66.021 74.0616C68.8303 71.4205 70.7435 68.0554 71.5185 64.392C72.2934 60.7286 71.8954 56.9314 70.3748 53.4806C68.8541 50.0299 66.2792 47.0806 62.9755 45.0058C59.6719 42.9309 55.7879 41.8237 51.8149 41.8242Z" fill="#3F3D56"/>
<path d="M61.105 60.261L47.0629 52.639C46.9973 52.6034 46.9228 52.5846 46.847 52.5846C46.7711 52.5846 46.6967 52.6034 46.631 52.639C46.5653 52.6746 46.5108 52.7259 46.4729 52.7876C46.435 52.8494 46.415 52.9194 46.415 52.9907V68.2342C46.415 68.3054 46.435 68.3755 46.4729 68.4372C46.5108 68.4989 46.5653 68.5502 46.631 68.5858C46.6967 68.6214 46.7711 68.6402 46.847 68.6402C46.9228 68.6402 46.9973 68.6214 47.0629 68.5858L61.105 60.9639C61.1707 60.9282 61.2252 60.8769 61.2631 60.8152C61.301 60.7535 61.3209 60.6835 61.3209 60.6122C61.3209 60.5409 61.301 60.4709 61.2631 60.4092C61.2252 60.3475 61.1707 60.2962 61.105 60.2606L47.0629 52.6386C46.9973 52.603 46.9228 52.5842 46.847 52.5842C46.7711 52.5842 46.6967 52.603 46.631 52.6386C46.5653 52.6742 46.5108 52.7255 46.4729 52.7872C46.435 52.8489 46.415 52.919 46.415 52.9902V68.2342C46.415 68.3054 46.435 68.3755 46.4729 68.4372C46.5108 68.4989 46.5653 68.5502 46.631 68.5858C46.6967 68.6214 46.7711 68.6402 46.847 68.6402C46.9228 68.6402 46.9973 68.6214 47.0629 68.5858L61.105 60.9639C61.1707 60.9282 61.2252 60.8769 61.2631 60.8152C61.301 60.7535 61.3209 60.6835 61.3209 60.6122C61.3209 60.5409 61.301 60.4709 61.2631 60.4092C61.2252 60.3475 61.1707 60.2962 61.105 60.2606V60.261Z" fill="#6C63FF"/>
<path d="M163.604 151H0V150.557H163.689L163.604 151Z" fill="#3F3D56"/>
<path d="M127.563 74.3236C130.895 74.3236 133.596 71.7842 133.596 68.6518C133.596 65.5193 130.895 62.9799 127.563 62.9799C124.231 62.9799 121.53 65.5193 121.53 68.6518C121.53 71.7842 124.231 74.3236 127.563 74.3236Z" fill="#FFB8B8"/>
<path d="M127.173 100.449C127.056 100.108 127.017 99.7479 127.059 99.3921C127.101 99.0362 127.223 98.6927 127.416 98.3841C127.609 98.0754 127.869 97.8086 128.179 97.6011C128.49 97.3937 128.843 97.2502 129.217 97.1802C129.335 97.1588 129.455 97.1452 129.575 97.1396L135.93 87.5507L130.126 82.362C129.902 82.1645 129.721 81.9269 129.595 81.6631C129.469 81.3993 129.401 81.1146 129.393 80.8255C129.385 80.5365 129.439 80.2489 129.551 79.9796C129.663 79.7102 129.83 79.4645 130.044 79.2568C130.258 79.049 130.514 78.8834 130.797 78.7695C131.079 78.6556 131.383 78.5958 131.691 78.5935C131.998 78.5913 132.303 78.6466 132.588 78.7562C132.872 78.8659 133.131 79.0277 133.348 79.2323L141.363 86.6632L141.379 86.6817C141.627 87.0363 141.747 87.4567 141.721 87.8804C141.694 88.304 141.523 88.7085 141.233 89.0336L132.329 98.9331C132.356 99.0125 132.378 99.0932 132.395 99.1747C132.47 99.5258 132.464 99.8877 132.38 100.237C132.295 100.586 132.133 100.914 131.904 101.2C131.675 101.486 131.384 101.723 131.051 101.896C130.717 102.069 130.349 102.174 129.97 102.204C129.893 102.21 129.817 102.213 129.741 102.213C129.17 102.211 128.614 102.039 128.152 101.722C127.691 101.406 127.348 100.96 127.173 100.449Z" fill="#FFB8B8"/>
<path d="M117.626 147.589H114.614L113.182 136.669H117.626L117.626 147.589Z" fill="#FFB8B8"/>
<path d="M118.516 150.45H108.561V150.217C108.561 149.736 108.661 149.259 108.858 148.814C109.054 148.368 109.341 147.964 109.704 147.623C110.066 147.283 110.496 147.012 110.97 146.828C111.443 146.644 111.95 146.549 112.463 146.549H118.516L118.516 150.45Z" fill="#2F2E41"/>
<path d="M147.558 143.675L144.97 145.124L137.797 136.43L141.616 134.292L147.558 143.675Z" fill="#FFB8B8"/>
<path d="M141.325 150.492L141.2 150.294C140.67 149.458 140.516 148.459 140.77 147.515C141.024 146.572 141.667 145.763 142.556 145.265L147.758 142.353L149.88 145.703L141.325 150.492Z" fill="#2F2E41"/>
<path d="M112.803 142.781C110.785 120.448 109.585 99.702 116.96 91.2389L117.017 91.1733L129.427 95.8406L129.448 95.8822C129.49 95.9679 133.617 104.503 132.655 110.245L135.716 123.484L145.697 139.196C145.778 139.323 145.828 139.464 145.846 139.61C145.864 139.757 145.849 139.905 145.801 140.045C145.754 140.186 145.675 140.315 145.57 140.424C145.465 140.534 145.337 140.621 145.193 140.681L140.856 142.475C140.611 142.575 140.336 142.589 140.081 142.514C139.826 142.439 139.609 142.28 139.468 142.067L128.611 125.421L122.477 112.654C122.444 112.585 122.387 112.528 122.316 112.492C122.245 112.456 122.163 112.443 122.083 112.455C122.003 112.467 121.93 112.503 121.874 112.558C121.818 112.614 121.783 112.685 121.775 112.76L118.376 142.803C118.347 143.059 118.219 143.295 118.016 143.466C117.813 143.638 117.55 143.733 117.277 143.733H113.904C113.628 143.731 113.362 143.633 113.158 143.457C112.954 143.281 112.827 143.04 112.803 142.781Z" fill="#2F2E41"/>
<path d="M117.001 91.4159L116.942 91.3893L116.933 91.3284C116.469 88.2779 117.018 84.8883 118.564 81.2541C119.326 79.4755 120.742 78.0134 122.555 77.1342C124.367 76.255 126.455 76.017 128.439 76.4638C129.581 76.7284 130.653 77.2133 131.586 77.8877C132.518 78.562 133.292 79.4111 133.858 80.3813C134.416 81.3414 134.756 82.4001 134.856 83.4903C134.957 84.5804 134.815 85.6783 134.441 86.7144C132.492 92.0719 129.964 97.0847 129.938 97.1347L129.885 97.2392L117.001 91.4159Z" fill="#6C63FF"/>
<path d="M108.071 104.067C107.986 103.451 108.138 102.827 108.501 102.307C108.864 101.788 109.414 101.409 110.049 101.238L121.655 80.2913C121.804 80.0494 122.003 79.8381 122.24 79.6698C122.478 79.5015 122.749 79.3797 123.037 79.3115C123.325 79.2434 123.625 79.2303 123.919 79.273C124.213 79.3157 124.495 79.4133 124.748 79.5602C125.001 79.707 125.22 79.9001 125.392 80.1279C125.564 80.3557 125.686 80.6137 125.751 80.8866C125.815 81.1596 125.821 81.4418 125.767 81.7168C125.714 81.9918 125.602 82.2538 125.439 82.4875L113.559 103.288C113.584 103.415 113.598 103.543 113.602 103.672C113.612 104.023 113.547 104.373 113.409 104.701C113.272 105.028 113.066 105.326 112.803 105.576C112.54 105.827 112.226 106.025 111.879 106.158C111.533 106.292 111.162 106.358 110.788 106.353C110.377 106.348 109.973 106.257 109.605 106.087C109.236 105.917 108.912 105.673 108.656 105.372C108.335 104.997 108.132 104.545 108.07 104.067H108.071Z" fill="#FFB8B8"/>
<path d="M120.248 65.4478H129.828V61.522C127.725 60.7367 125.668 60.0687 124.424 61.522C123.316 61.522 122.254 61.9356 121.471 62.6718C120.688 63.4081 120.248 64.4066 120.248 65.4478Z" fill="#2F2E41"/>
<path d="M130.358 60.8292C136.085 60.8292 137.688 67.5779 137.688 71.3854C137.688 73.5087 136.667 74.2684 135.062 74.525L134.495 71.6826L133.167 74.6469C132.716 74.6489 132.243 74.6408 131.752 74.6322L131.301 73.7608L130.298 74.6166C126.277 74.6223 123.028 75.1731 123.028 71.385C123.028 67.5781 124.434 60.8292 130.358 60.8292Z" fill="#2F2E41"/>
<path d="M128.651 66.3901V61.1383C128.651 61.0761 128.638 61.0145 128.613 60.957C128.588 60.8996 128.551 60.8473 128.504 60.8033C128.457 60.7594 128.401 60.7245 128.34 60.7007C128.279 60.6769 128.214 60.6646 128.147 60.6646H127.14C127.074 60.6646 127.008 60.6769 126.947 60.7007C126.886 60.7245 126.83 60.7594 126.784 60.8033C126.737 60.8473 126.7 60.8996 126.674 60.957C126.649 61.0145 126.636 61.0761 126.636 61.1383V66.0733C125.891 66.187 125.213 66.5459 124.723 67.0858C124.234 67.6257 123.964 68.3117 123.962 69.0213C123.96 69.7309 124.227 70.418 124.714 70.9601C125.201 71.5022 125.877 71.864 126.621 71.981C127.366 72.098 128.13 71.9626 128.778 71.599C129.426 71.2353 129.916 70.667 130.16 69.9954C130.404 69.3239 130.386 68.5927 130.109 67.9324C129.833 67.272 129.317 66.7254 128.651 66.3901Z" fill="#6C63FF"/>
<path d="M127.307 70.4527C128.142 70.4527 128.818 69.8166 128.818 69.0319C128.818 68.2472 128.142 67.6111 127.307 67.6111C126.473 67.6111 125.796 68.2472 125.796 69.0319C125.796 69.8166 126.473 70.4527 127.307 70.4527Z" fill="white" fill-opacity="0.75"/>
</svg>
